<?xml version="1.0" standalone="no"?>
<!DOCTYPE svg PUBLIC "-//W3C//DTD SVG 20010904//EN"
 "http://www.w3.org/TR/2001/REC-SVG-20010904/DTD/svg10.dtd">
<svg version="1.0" xmlns="http://www.w3.org/2000/svg"
 width="600.000000pt" height="361.000000pt" viewBox="0 0 600.000000 361.000000"
 preserveAspectRatio="xMidYMid meet">

<g transform="translate(0.000000,361.000000) scale(0.100000,-0.100000)"
fill="#000000" stroke="none">
<path d="M4150 2946 c0 -21 6 -36 15 -40 9 -3 15 -18 15 -38 l0 -33 100 0 100
0 0 33 c0 26 5 35 21 39 16 4 19 12 17 37 l-3 31 -132 3 -133 3 0 -35z"/>
<path d="M2880 2724 c-98 -13 -209 -38 -288 -65 -407 -143 -704 -474 -808
-905 -23 -93 -26 -131 -27 -264 0 -226 43 -408 140 -585 134 -244 304 -412
538 -532 181 -93 353 -133 564 -133 338 0 621 114 864 349 53 52 97 92 97 90
1 -98 23 -325 33 -331 8 -5 0 -10 -20 -14 -18 -3 -38 -13 -44 -20 -10 -12 0
-14 59 -14 l70 0 6 63 c3 34 8 161 11 281 6 198 9 224 28 260 l21 41 7 -55 c4
-30 17 -161 29 -290 17 -180 25 -238 37 -247 13 -10 10 -13 -18 -20 -59 -16
-47 -33 24 -33 l64 0 7 46 c13 100 1 890 -15 915 -5 9 -46 12 -156 10 -81 -1
-150 -5 -153 -8 -3 -3 -5 -97 -5 -210 l0 -205 -72 -88 c-252 -308 -659 -460
-1059 -395 -382 62 -711 322 -859 679 -66 161 -79 231 -80 431 0 193 9 251 61
397 171 477 653 782 1165 737 212 -18 434 -105 597 -234 l82 -65 0 47 c0 27 3
58 6 69 5 18 -6 30 -59 68 -140 100 -324 179 -489 211 -83 16 -293 27 -358 19z"/>
<path d="M2977 2443 c-4 -3 -7 -39 -7 -78 0 -51 4 -76 15 -85 26 -22 35 0 35
86 0 75 -2 84 -18 84 -10 0 -22 -3 -25 -7z"/>
<path d="M4247 2372 c-23 -25 -21 -55 3 -77 32 -29 74 -10 78 35 5 54 -46 81
-81 42z"/>
<path d="M2330 2145 c-11 -14 -7 -22 25 -55 42 -43 75 -52 75 -21 0 15 -70 91
-84 91 -2 0 -9 -7 -16 -15z"/>
<path d="M2977 2154 c-4 -4 -7 -135 -7 -291 0 -155 -4 -283 -9 -283 -4 0 -20
-12 -35 -26 -38 -39 -37 -105 3 -145 36 -36 95 -40 133 -9 23 18 44 20 214 22
181 3 189 4 189 23 0 19 -8 20 -180 25 l-179 5 -8 39 c-7 32 -5 43 9 57 10 9
92 83 183 164 91 81 167 153 169 159 5 13 7 15 -207 -177 -161 -144 -176 -155
-198 -145 l-24 11 -2 286 c-3 279 -3 286 -23 289 -12 2 -24 0 -28 -4z"/>
<path d="M3611 2135 c-33 -29 -41 -62 -15 -72 21 -8 76 46 72 71 -4 29 -22 30
-57 1z"/>
<path d="M4032 2044 c-32 -13 -62 -49 -62 -75 0 -9 -11 -24 -24 -33 -18 -11
-25 -25 -24 -48 0 -18 -3 -47 -7 -63 -5 -24 -2 -35 18 -53 26 -25 96 -54 109
-45 17 10 6 33 -22 48 -35 18 -42 41 -38 115 2 46 6 55 23 58 11 2 30 8 42 14
49 24 93 -26 64 -71 -6 -9 -6 -22 0 -33 7 -12 5 -26 -5 -46 -16 -32 -11 -46
22 -56 12 -4 22 -10 22 -14 0 -4 16 -7 35 -8 19 0 35 4 35 9 0 5 11 22 25 39
29 35 31 55 8 88 -9 13 -16 38 -15 56 2 18 -4 36 -13 44 -8 7 -15 21 -15 31 0
10 -10 27 -22 38 -24 23 -107 26 -156 5z"/>
<path d="M995 1970 l-80 -48 -78 40 c-44 21 -81 37 -83 35 -3 -2 20 -17 51
-33 30 -16 55 -32 55 -35 0 -4 -25 -26 -55 -49 -30 -23 -55 -47 -55 -52 0 -6
25 11 56 38 49 41 63 48 105 50 50 2 47 4 152 -84 9 -8 17 -11 17 -6 0 5 -25
29 -55 52 -30 24 -55 47 -55 52 0 5 25 24 55 42 30 18 55 36 55 40 0 10 7 14
-85 -42z"/>
<path d="M5048 1959 l-47 -30 -50 26 c-28 14 -54 25 -58 25 -4 -1 9 -10 30
-21 26 -14 37 -25 33 -35 -4 -10 -2 -12 7 -7 25 16 63 9 102 -20 l40 -29 -39
35 -39 35 41 21 c23 12 42 24 42 26 0 10 -16 3 -62 -26z"/>
<path d="M4909 1883 c-13 -16 -12 -17 4 -4 9 7 17 15 17 17 0 8 -8 3 -21 -13z"/>
<path d="M4040 1830 c0 -5 7 -7 15 -4 8 4 15 8 15 10 0 2 -7 4 -15 4 -8 0 -15
-4 -15 -10z"/>
<path d="M1156 1768 c-9 -30 -14 -116 -9 -161 5 -42 8 -48 27 -45 19 3 21 10
24 88 2 47 0 95 -3 108 -6 23 -33 30 -39 10z"/>
<path d="M1336 1768 c-9 -30 -14 -116 -9 -161 5 -42 8 -48 27 -45 19 3 21 10
24 88 2 47 0 95 -3 108 -6 23 -33 30 -39 10z"/>
<path d="M1506 1768 c-9 -29 -14 -116 -9 -160 4 -38 10 -48 24 -48 10 0 20 9
24 20 7 21 5 141 -3 178 -4 23 -30 30 -36 10z"/>
<path d="M1686 1768 c-9 -30 -14 -116 -9 -161 5 -42 8 -48 27 -45 18 3 21 11
24 58 5 83 -7 160 -24 160 -8 0 -16 -6 -18 -12z"/>
<path d="M2037 1503 c-13 -12 -7 -41 9 -47 9 -3 42 -6 74 -6 71 0 90 6 90 30
0 10 -7 21 -16 24 -21 8 -149 8 -157 -1z"/>
<path d="M3828 1463 c17 -2 47 -2 65 0 17 2 3 4 -33 4 -36 0 -50 -2 -32 -4z"/>
<path d="M2362 877 c-34 -35 -41 -61 -18 -70 17 -7 101 77 92 92 -13 20 -42
11 -74 -22z"/>
<path d="M3593 903 c-22 -8 -14 -38 15 -66 31 -30 57 -35 65 -13 11 28 -52 89
-80 79z"/>
<path d="M1813 713 c-18 -7 -16 -48 2 -63 12 -10 20 -9 41 5 23 15 24 18 11
38 -15 23 -33 29 -54 20z"/>
<path d="M2980 600 c0 -89 1 -91 23 -88 21 3 22 7 22 88 0 81 -1 85 -22 88
-22 3 -23 1 -23 -88z"/>
</g>
</svg>
