<?xml version="1.0" standalone="no"?>
<!DOCTYPE svg PUBLIC "-//W3C//DTD SVG 20010904//EN"
 "http://www.w3.org/TR/2001/REC-SVG-20010904/DTD/svg10.dtd">
<svg version="1.0" xmlns="http://www.w3.org/2000/svg"
 width="1243.000000pt" height="947.000000pt" viewBox="0 0 1243.000000 947.000000"
 preserveAspectRatio="xMidYMid meet">

<g transform="translate(0.000000,947.000000) scale(0.100000,-0.100000)"
fill="#000000" stroke="none">
<path d="M6011 8339 c-238 -31 -447 -179 -555 -397 -128 -255 -93 -564 90
-786 l54 -66 499 0 499 0 54 58 c63 68 117 166 149 272 30 96 33 280 6 380
-61 229 -248 431 -470 505 -71 24 -194 46 -242 43 -11 0 -49 -4 -84 -9z m127
-255 c17 -12 22 -25 22 -60 0 -34 4 -44 16 -44 9 0 31 -7 49 -15 72 -35 95
-84 55 -120 -21 -19 -45 -17 -121 10 -41 15 -50 15 -82 2 -26 -12 -37 -23 -42
-47 -10 -47 17 -77 120 -132 104 -56 131 -79 156 -133 37 -79 19 -169 -46
-232 -24 -22 -57 -44 -74 -48 -28 -6 -31 -10 -31 -46 0 -40 -26 -79 -53 -79
-28 0 -50 28 -56 71 -5 38 -10 44 -36 50 -119 25 -167 86 -110 139 24 22 28
23 58 11 115 -47 166 -50 201 -12 22 24 24 73 4 103 -9 13 -51 43 -94 67 -107
59 -142 87 -165 132 -51 101 5 238 111 270 39 12 40 13 40 60 0 35 5 51 18 58
24 14 34 13 60 -5z"/>
<path d="M4731 7624 c-72 -19 -165 -70 -199 -108 -46 -53 -440 -757 -451 -807
-20 -87 21 -163 103 -194 37 -14 248 -15 1936 -13 1891 3 1895 3 1930 24 78
45 102 139 60 232 -51 113 -417 740 -449 771 -46 42 -140 88 -212 101 -31 6
-141 9 -245 8 l-189 -3 -6 -90 c-4 -49 -12 -112 -18 -139 -18 -74 -67 -195
-106 -256 l-34 -55 64 -3 c58 -3 67 -6 90 -34 34 -40 29 -91 -10 -125 l-26
-23 -865 0 -866 0 -29 29 c-38 38 -39 87 -4 125 21 23 32 26 85 26 34 0 60 3
58 8 -1 4 -27 54 -56 112 -59 118 -88 219 -98 344 l-7 86 -201 -1 c-142 0
-217 -5 -255 -15z"/>
<path d="M4012 5854 l3 -649 23 -46 c31 -63 86 -117 147 -145 l52 -24 1879 2
1879 3 46 27 c57 33 105 87 133 147 21 45 21 59 24 690 l3 643 -46 -40 c-25
-22 -67 -49 -93 -59 -45 -17 -134 -18 -1912 -21 -1283 -2 -1887 1 -1934 8 -76
12 -157 50 -187 89 -19 24 -20 19 -17 -625z m1378 130 c109 -62 155 -160 148
-318 -4 -104 -28 -165 -86 -223 -59 -59 -112 -78 -222 -77 -80 0 -103 4 -144
24 -108 52 -157 135 -164 276 -5 110 13 183 61 245 60 80 136 110 262 106 80
-2 98 -7 145 -33z m386 17 c11 -10 78 -107 150 -217 l129 -198 5 200 c5 218 9
234 61 234 35 0 56 -21 64 -63 4 -19 5 -152 3 -296 -3 -262 -3 -263 -27 -282
-31 -25 -70 -24 -103 4 -15 12 -84 110 -155 217 l-128 195 -3 -199 c-2 -168
-5 -203 -19 -218 -21 -24 -58 -23 -83 2 -19 19 -20 33 -20 304 0 271 1 284 21
310 25 32 75 35 105 7z m845 -5 c21 -21 239 -543 239 -573 0 -22 -42 -63 -66
-63 -34 0 -59 29 -85 99 l-22 62 -130 -3 -129 -3 -24 -65 c-26 -69 -44 -90
-80 -90 -32 0 -65 46 -57 79 17 71 209 538 229 558 32 32 93 32 125 -1z
m-1915 -21 c95 -59 142 -172 131 -317 -10 -126 -55 -207 -140 -254 -49 -27
-60 -28 -204 -32 l-152 -4 -26 26 -26 26 3 281 c3 267 4 281 23 295 16 13 51
15 181 12 159 -3 161 -3 210 -33z m2628 19 c21 -20 20 -53 -1 -76 -13 -15 -32
-18 -105 -18 l-88 0 0 -254 c0 -252 0 -255 -22 -270 -33 -23 -64 -19 -87 10
-20 25 -21 39 -21 270 l0 244 -84 0 c-64 0 -88 4 -100 16 -22 21 -20 70 2 83
10 6 112 11 254 11 202 0 239 -2 252 -16z m562 -9 c15 -23 15 -27 0 -50 -16
-25 -17 -25 -176 -25 l-160 0 0 -75 0 -75 138 0 c155 0 186 -10 180 -58 -5
-43 -38 -52 -185 -52 l-133 0 0 -85 0 -85 160 0 c147 0 162 -2 180 -20 11 -11
20 -27 20 -35 0 -8 -9 -24 -20 -35 -19 -19 -33 -20 -225 -20 -205 0 -206 0
-230 25 l-25 24 0 266 c0 262 4 297 34 317 6 4 104 8 218 8 l208 0 16 -25z"/>
<path d="M5139 5887 c-19 -12 -45 -43 -59 -67 -20 -37 -25 -59 -25 -125 0 -67
4 -89 26 -130 65 -127 233 -127 298 -1 54 105 25 269 -58 323 -48 32 -135 32
-182 0z"/>
<path d="M6513 5751 c-24 -65 -43 -122 -43 -125 0 -3 40 -6 90 -6 l90 0 -34
93 c-18 50 -40 107 -47 125 l-14 33 -42 -120z"/>
<path d="M4420 5690 l0 -210 81 0 c107 0 140 16 174 83 35 70 36 191 3 257
-32 62 -71 80 -175 80 l-83 0 0 -210z"/>
<path d="M4997 3223 c-4 -3 -7 -84 -7 -180 l0 -173 -71 0 -72 0 7 43 c3 23 9
70 12 105 l7 62 -37 0 c-20 0 -36 -3 -36 -6 0 -63 -67 -386 -95 -456 -5 -12 2
-21 25 -33 18 -9 33 -15 35 -13 5 5 52 160 60 196 l7 32 79 0 79 0 -2 -187 -3
-187 -138 -45 -137 -45 6 -36 c4 -19 9 -38 13 -42 3 -4 64 15 134 41 l127 49
0 -274 0 -274 40 0 40 0 2 287 3 288 82 30 81 30 -5 35 c-3 19 -8 37 -10 40
-3 3 -38 -7 -79 -22 l-74 -26 0 169 0 169 80 0 80 0 0 35 0 35 -80 0 -80 0 0
180 0 180 -33 0 c-19 0 -37 -3 -40 -7z"/>
<path d="M8157 3208 l-29 -21 63 -63 63 -64 -197 0 -197 0 0 -30 0 -30 290 0
290 0 0 -50 0 -50 -260 0 -260 0 0 -30 0 -30 260 0 260 0 0 -60 0 -60 -325 0
-325 0 0 -30 0 -30 238 0 237 -1 -57 -53 c-61 -58 -232 -151 -369 -202 l-77
-28 22 -33 c24 -38 17 -38 160 18 54 21 100 39 102 39 2 0 4 -121 4 -269 l0
-269 -44 -6 -44 -7 16 -40 c10 -25 20 -38 29 -35 7 3 88 21 180 41 93 19 184
39 203 43 32 7 35 11 38 45 2 26 -1 37 -10 37 -7 -1 -75 -14 -150 -29 l-138
-28 0 103 0 104 400 0 400 0 0 165 c0 91 2 165 4 165 1 0 52 -20 111 -45 60
-25 114 -44 121 -41 7 3 20 18 28 35 l16 30 -83 25 c-143 44 -329 146 -391
215 l-19 21 231 0 232 0 0 30 0 30 -330 0 -330 0 0 60 0 60 260 0 260 0 0 30
0 30 -260 0 -260 0 0 50 0 50 295 0 295 0 0 30 0 30 -192 0 -192 0 59 61 c58
58 59 61 40 75 -49 37 -48 37 -124 -51 l-71 -85 -168 0 c-165 1 -167 1 -144
20 l22 18 -66 59 c-85 75 -84 75 -117 51z m503 -594 c25 -25 70 -64 100 -87
30 -22 59 -45 65 -49 5 -4 -142 -8 -325 -8 l-335 0 35 27 c19 14 64 57 100 94
l65 68 125 1 126 0 44 -46z m190 -254 l0 -50 -360 0 -360 0 0 50 0 50 360 0
360 0 0 -50z m0 -160 l0 -50 -360 0 -360 0 0 50 0 50 360 0 360 0 0 -50z"/>
<path d="M8310 2560 l0 -30 180 0 180 0 0 30 0 30 -180 0 -180 0 0 -30z"/>
<path d="M4210 3060 l0 -160 -75 0 -75 0 0 -35 0 -35 74 0 74 0 -5 -177 c-5
-217 -17 -341 -44 -453 -25 -103 -85 -235 -139 -306 l-40 -53 26 -20 c15 -12
30 -21 35 -21 17 0 73 80 114 165 84 172 114 329 122 643 l6 222 104 0 104 0
-6 -212 c-3 -117 -10 -308 -15 -425 -12 -285 -14 -288 -162 -284 -77 2 -78 2
-78 -23 0 -53 6 -56 98 -56 113 0 161 22 193 88 24 50 25 56 44 735 l7 247
-141 0 -141 0 0 160 0 160 -40 0 -40 0 0 -160z"/>
<path d="M5445 3141 c-47 -131 -113 -272 -179 -381 l-63 -105 36 -22 36 -22
33 52 c18 29 54 94 79 145 l46 92 64 0 c73 0 73 0 48 -110 -53 -229 -155 -419
-308 -574 l-68 -70 29 -29 c38 -38 51 -31 137 70 157 184 247 374 294 618 l18
90 76 3 77 3 -4 -38 c-22 -170 -31 -222 -56 -321 -69 -274 -219 -496 -439
-649 -7 -5 51 -63 62 -63 5 0 38 23 73 51 246 195 393 516 439 957 l7 62 63 0
63 0 -4 -192 c-10 -423 -24 -689 -40 -719 -28 -55 -55 -64 -209 -69 l-141 -5
9 -42 8 -43 103 0 c189 0 264 29 307 116 27 57 33 152 44 682 l8 342 -312 0
c-185 0 -311 4 -311 9 0 5 18 56 40 112 22 56 38 104 36 107 -3 2 -20 7 -39
12 l-35 8 -27 -77z"/>
<path d="M6320 3125 l0 -35 160 0 160 0 0 35 0 35 -160 0 -160 0 0 -35z"/>
<path d="M3860 3139 c-113 -11 -432 -29 -533 -29 -88 0 -89 0 -83 -22 3 -13 6
-29 6 -37 0 -11 28 -12 160 -6 l160 7 0 -66 0 -66 -190 0 -190 0 0 -35 0 -35
190 0 190 0 0 -60 0 -60 -155 0 -155 0 0 -225 0 -225 155 0 155 0 0 -65 0 -65
-165 0 -165 0 0 -35 0 -35 165 0 165 0 0 -64 c0 -78 15 -72 -217 -82 -162 -6
-163 -6 -163 -29 0 -43 9 -54 43 -49 18 2 193 13 391 24 197 11 362 23 367 26
5 3 9 19 9 36 l0 31 -152 -7 c-84 -4 -161 -10 -170 -12 -16 -5 -18 3 -18 60
l0 66 165 0 165 0 0 35 0 35 -165 0 -165 0 0 65 0 65 155 0 155 0 0 225 0 225
-155 0 -155 0 0 60 0 60 180 0 180 0 0 35 0 35 -180 0 -180 0 0 64 0 64 33 6
c17 3 73 8 122 11 153 10 153 10 146 47 -4 17 -11 32 -16 33 -6 1 -44 -1 -85
-6z m-290 -534 l0 -65 -115 0 -115 0 0 65 0 65 115 0 115 0 0 -65z m320 0 l0
-65 -115 0 -115 0 0 65 0 65 115 0 115 0 0 -65z m-320 -195 l0 -60 -115 0
-115 0 0 60 0 60 115 0 115 0 0 -60z m320 0 l0 -60 -115 0 -115 0 0 60 0 60
115 0 115 0 0 -60z"/>
<path d="M6840 3095 l0 -35 161 0 162 0 -6 -72 c-7 -88 -24 -170 -40 -192 -11
-15 -24 -10 -128 44 l-117 60 -16 -25 c-9 -13 -16 -29 -16 -34 0 -5 44 -33 98
-61 143 -77 136 -69 104 -114 -33 -47 -125 -116 -202 -153 -32 -15 -59 -32
-59 -36 -1 -4 9 -21 21 -37 26 -36 36 -34 134 26 89 54 194 165 235 245 40 81
69 196 69 281 l0 68 145 0 145 0 -5 -152 c-10 -273 -13 -296 -45 -331 l-28
-32 -107 0 -106 0 3 -40 3 -40 100 -3 c156 -4 221 32 243 135 6 26 14 157 18
291 l7 242 -387 0 -386 0 0 -35z"/>
<path d="M6240 2925 l0 -35 240 0 240 0 0 35 0 35 -240 0 -240 0 0 -35z"/>
<path d="M6280 2705 l0 -35 200 0 200 0 0 35 0 35 -200 0 -200 0 0 -35z"/>
<path d="M6280 2495 l0 -35 200 0 200 0 0 35 0 35 -200 0 -200 0 0 -35z"/>
<path d="M7171 2391 l-24 -19 68 -105 c71 -112 70 -111 118 -75 17 13 14 20
-49 116 -36 56 -71 102 -78 102 -6 0 -22 -9 -35 -19z"/>
<path d="M6992 2128 c3 -210 9 -233 61 -272 25 -18 45 -21 160 -24 78 -2 147
1 169 7 65 20 104 89 122 219 7 45 7 45 -61 66 -22 7 -23 5 -23 -56 0 -144
-26 -168 -179 -168 -90 0 -139 11 -153 33 -4 7 -8 96 -8 200 l0 187 -46 0 -46
0 4 -192z"/>
<path d="M6282 2068 l3 -243 40 0 40 0 3 48 3 47 115 0 114 0 0 -51 0 -50 38
3 37 3 3 243 2 242 -200 0 -200 0 2 -242z m318 37 l0 -135 -115 0 -115 0 0
135 0 135 115 0 115 0 0 -135z"/>
<path d="M7533 2278 c-13 -6 -23 -16 -23 -22 0 -7 15 -47 33 -91 19 -44 42
-104 51 -132 10 -29 19 -53 21 -53 12 0 75 32 74 38 -2 29 -109 267 -120 269
-8 1 -24 -3 -36 -9z"/>
<path d="M6816 2197 c-9 -35 -32 -99 -50 -144 l-32 -81 36 -11 c21 -6 40 -11
43 -11 6 0 76 211 90 271 6 24 3 27 -24 33 -17 3 -35 6 -39 6 -4 0 -15 -28
-24 -63z"/>
<path d="M8960 2079 c-25 -16 -81 -48 -124 -71 -92 -46 -94 -46 -265 6 l-111
33 -16 -24 c-8 -14 -14 -26 -12 -28 2 -1 59 -20 128 -40 112 -34 487 -166 510
-180 12 -8 44 55 33 65 -6 7 -163 68 -241 95 -8 3 26 25 76 50 110 55 119 65
97 99 -10 14 -20 26 -24 26 -3 0 -26 -14 -51 -31z"/>
</g>
</svg>
